<?xml version="1.0" encoding="UTF-8"?>
<svg width="36px" height="54px" viewBox="0 0 36 54" version="1.1" xmlns="http://www.w3.org/2000/svg" xmlns:xlink="http://www.w3.org/1999/xlink">
    <!-- Generator: Sketch 49.3 (51167) - http://www.bohemiancoding.com/sketch -->
    <title>Group 2</title>
    <desc>Created with Sketch.</desc>
    <defs>
        <linearGradient x1="50%" y1="10.6168714%" x2="50%" y2="100%" id="linearGradient-1">
            <stop stop-color="#14A4FB" offset="0%"></stop>
            <stop stop-color="#0574E4" stop-opacity="0.139775815" offset="100%"></stop>
        </linearGradient>
    </defs>
    <g id="Page-1" stroke="none" stroke-width="1" fill="none" fill-rule="evenodd">
        <g id="02合同" transform="translate(-357.000000, -1250.000000)" fill="url(#linearGradient-1)">
            <g id="Group-2" transform="translate(357.000000, 1250.000000)">
                <path d="M18.2,26.2867925 C15.9912,26.2867925 14.2,24.4617962 14.2,22.2113208 C14.2,19.9608453 15.9912,18.1358491 18.2,18.1358491 C20.4096,18.1358491 22.2,19.9608453 22.2,22.2113208 C22.2,24.4617962 20.4096,26.2867925 18.2,26.2867925 Z M22.2,35.2528302 C22.2,37.5033057 20.4096,39.3283019 18.2,39.3283019 C15.9912,39.3283019 14.2,37.5033057 14.2,35.2528302 C14.2,33.0023547 15.9912,31.1773585 18.2,31.1773585 C20.4096,31.1773585 22.2,33.0023547 22.2,35.2528302 Z M22.2,49.109434 C22.2,51.3599094 20.4096,53.1849057 18.2,53.1849057 C15.9912,53.1849057 14.2,51.3599094 14.2,49.109434 C14.2,46.8589585 15.9912,45.0339623 18.2,45.0339623 C20.4096,45.0339623 22.2,46.8589585 22.2,49.109434 Z M0.54375853,17.7988113 L17.5010898,0.553337566 C17.8111025,0.495440167 18.1860169,0.494162176 18.4985799,0.553337566 L35.4559112,17.7988113 C35.5129142,17.9319142 35.5164517,18.3069451 35.4559112,18.813251 L33.4609311,20.8421302 C32.9399565,20.8999244 32.5641908,20.9026804 32.463441,20.8421302 L18.4985799,6.63997537 C18.1897311,6.43625519 17.8126811,6.43220654 17.5010898,6.63997537 L3.53622876,20.8421302 C3.43822141,20.8986318 3.06313031,20.9046519 2.53873868,20.8421302 L0.54375853,18.813251 C0.486635036,18.3116726 0.484205258,17.9331922 0.54375853,17.7988113 Z" id="Fill-"></path>
            </g>
        </g>
    </g>
</svg>